<svg xmlns="http://www.w3.org/2000/svg" xmlns:xlink="http://www.w3.org/1999/xlink" width="296" height="82.2" viewBox="0 0 296 82.2">
  <defs>
    <linearGradient id="linear-gradient" x1="0.857" y1="0.988" x2="0.275" y2="0.011" gradientUnits="objectBoundingBox">
      <stop offset="0" stop-color="#289fd2"/>
      <stop offset="0.303" stop-color="#0069ab"/>
      <stop offset="1" stop-color="#00a8e5"/>
    </linearGradient>
  </defs>
  <g id="Group_5" data-name="Group 5" transform="translate(-68.703 -43.411)">
    <path id="Path_1" data-name="Path 1" d="M79.9,90.287c-8.8-17.9-3.361-36.484,12.153-41.5,12.364-4,27.39,1.835,37.44,13.428-9.805-15.708-27.811-22.032-42.662-17.232C69.86,50.469,63.71,70.388,73.1,89.477c8.958,18.218,28.827,29.079,45.374,25.265C104.052,116.146,87.7,106.146,79.9,90.287Z" fill="url(#linear-gradient)" style="mix-blend-mode: multiply;isolation: isolate"/>
    <path id="Path_2" data-name="Path 2" d="M90.271,104.727c-5.639-17.2.863-34.625,12.065-37.751,9.806-2.736,20.315,2.456,27.271,13.8C123.08,65.587,109.765,58.8,98.2,62.6c-13.217,4.332-19.061,22.711-13.05,41.049,5.739,17.5,20.2,28.629,33,25.84C107.107,130.113,95.265,119.963,90.271,104.727Z" transform="translate(0 -17.231)" fill="url(#linear-gradient)" style="mix-blend-mode: multiply;isolation: isolate"/>
    <path id="Path_3" data-name="Path 3" d="M98.759,107.484c-3.685-13.538,1.3-25.776,10.737-28.384,7.522-2.081,15.147,2.863,20.065,11.912C125.117,79,115.14,73.241,106.107,75.739,95.785,78.593,90.6,92.6,94.53,107.036c3.75,13.774,14.446,22.94,24.387,21.268C110.41,128.371,102.022,119.472,98.759,107.484Z" transform="translate(0 -17.231)" fill="url(#linear-gradient)" style="mix-blend-mode: multiply;isolation: isolate"/>
    <g id="Group_4" data-name="Group 4" transform="translate(111.81 81.614)">
      <path id="Path_4" data-name="Path 4" d="M167.132,107.641c-7.909,0-13.386,6.892-13.386,14.842,0,5.591,3.62,9.685,9.478,9.685,7.909,0,13.388-6.842,13.388-14.84C176.612,112.171,173.372,107.641,167.132,107.641Zm-3.145,20.19c-2.857,0-4.525-2.264-4.525-5.493,0-4.384,2.573-10.361,7-10.361,3.334,0,4.43,2.989,4.43,5.4C170.9,122.05,168.131,127.831,163.987,127.831Zm-14.218,2.708a20.477,20.477,0,0,1-8.414,1.5c-8.365,0-13.719-5.222-13.719-13.684,0-6.817,2.868-12.569,7.551-16.051a19.216,19.216,0,0,1,12-3.869,14.8,14.8,0,0,1,7.027,1.451l-1.625,4.546a13.752,13.752,0,0,0-6.07-1.161,12.158,12.158,0,0,0-8.174,3.046,14.963,14.963,0,0,0-4.685,11.312c0,5.512,2.773,9.575,9.131,9.575A16.4,16.4,0,0,0,149.242,126Zm46.331-22.9a9.965,9.965,0,0,0-8.337,4.722h-.1l.523-4.19h-4.954c-.286,2.024-.618,4.48-1.19,7.275l-3,16.19h5.526l2-10.841c1-5.494,4.239-8.578,6.765-8.578,2.193,0,2.906,1.4,2.906,3.372a17.972,17.972,0,0,1-.284,2.8l-2.478,13.251h5.573l2.525-13.684a22.2,22.2,0,0,0,.428-3.856C202.006,109.665,199.434,107.641,196.1,107.641Zm26.346.532-5.764,11.805c-1.286,2.793-1.954,4.483-2.526,5.975h-.141c-.143-1.541-.382-3.325-.666-6.12l-1.477-11.66h-5.718l3.954,23.465h5.574l12.91-23.465Zm18.725-.532c-8,0-13.149,7.71-13.149,14.794,0,5.733,3.1,9.733,9.529,9.733a18.485,18.485,0,0,0,8.2-1.879l-.528-4.1a13.552,13.552,0,0,1-6.382,1.544,5.107,5.107,0,0,1-4.763-2.41,6.559,6.559,0,0,1-.62-3.325c8.956.192,15.2-1.736,15.2-7.758C248.651,110.292,245.747,107.641,241.171,107.641Zm-7.145,10.168c.666-2.843,2.953-5.975,6.431-5.975,1.763,0,2.952.915,2.952,2.409C243.41,117.086,239.743,117.855,234.026,117.809Zm31.918-10.168c-3.144,0-5.667,2.314-7.239,5.446h-.143c.238-1.687.381-3.326.524-4.914h-4.811c-.239,2.072-.573,5.685-1.192,9.011l-2.715,14.454h5.526l1.761-9.445c.908-5.009,3.432-9.06,7.386-9.06a6.725,6.725,0,0,1,1.048.05l1.094-5.492C266.8,107.691,266.374,107.641,265.945,107.641Zm16.39,0c-9.622,0-15.2,7.759-15.149,15.614,0,4.431,2.621,8.288,7.242,8.288a8.484,8.484,0,0,0,7.288-4.146h.1l-.573,2.65c-1.141,5.447-3.906,7.181-7.526,7.181a13.272,13.272,0,0,1-6.1-1.4l-1.383,4.288a14.759,14.759,0,0,0,7.289,1.592c2.906,0,6.145-.58,8.575-2.6,2.621-2.218,3.907-5.88,4.764-10.458l3.526-19.369A20.292,20.292,0,0,0,282.335,107.641Zm.715,11.951c-.809,4.241-3.572,7.566-6.335,7.566S273,124.843,273,122.387c0-5.059,3.43-10.359,8.291-10.359a8.011,8.011,0,0,1,3.1.577Zm21.535.143c-1.1,2.555-1.667,4.143-2.237,5.591h-.1c-.191-1.59-.477-3.325-.906-5.879l-1.811-11.274h-5.811l4.621,21.633a1.37,1.37,0,0,1-.094,1.062,13.994,13.994,0,0,1-4.1,4.674,14.751,14.751,0,0,1-4.1,2.071l1.287,4.818a15.648,15.648,0,0,0,7.144-4.046c3.1-3.037,5.669-7.227,8.48-12.916l8.482-17.3h-5.909Zm26.443,11.9h5.526l4.431-23.465h-5.526Zm-6.052-19.13h5.254l3.161-4.335h-7.556l1.1-6.023-5.717,1.638-3.668,19.176a22.219,22.219,0,0,0-.478,4.339c0,2.7,1.667,4.817,5.478,4.817a10.971,10.971,0,0,0,3.621-.482l.524-4.384a11.944,11.944,0,0,1-1.905.143c-1.476,0-2.049-.817-2.049-2.12a16.743,16.743,0,0,1,.429-3.324Zm32.969-.289a8.222,8.222,0,0,1,3.526.725l1.43-4.387a13.168,13.168,0,0,0-4.764-.866c-8.574,0-14.719,6.889-14.719,15.08,0,5.592,3.572,9.349,9.384,9.349a15.7,15.7,0,0,0,6.668-1.348l-.236-4.289a11.411,11.411,0,0,1-4.906,1.108c-3.1,0-5.1-1.975-5.1-5.492C349.228,117.184,352.611,112.219,357.946,112.219Zm16.867-.385a9.344,9.344,0,0,1,4.334,1.061l1.382-4.05a11.073,11.073,0,0,0-5.43-1.2c-5.478,0-9.386,3.181-9.386,7.71,0,2.7,1.906,4.675,4.573,6.118,2.288,1.206,3.051,2.171,3.051,3.617,0,1.588-1.334,2.889-3.575,2.889a12.58,12.58,0,0,1-5.574-1.541l-1.428,4a12.316,12.316,0,0,0,6.479,1.734c5.574.046,9.861-2.842,9.861-8.046,0-2.989-2.239-4.915-4.811-6.313-2-1.013-3-1.928-3-3.276C371.287,112.944,372.716,111.834,374.812,111.834Z" transform="translate(-127.636 -98.434)" fill="url(#linear-gradient)" style="mix-blend-mode: multiply;isolation: isolate"/>
      <g id="Group_2" data-name="Group 2" transform="translate(5.668 38.668)">
        <g id="Group_1" data-name="Group 1">
          <path id="Path_5" data-name="Path 5" d="M134.1,137.223a6.355,6.355,0,0,1,1.068-.083,2.023,2.023,0,0,1,1.579.572,1.636,1.636,0,0,1,.4,1.165,2.689,2.689,0,0,1-.858,2.017,2.858,2.858,0,0,1-1.948.6,9.661,9.661,0,0,1-1.037-.052Zm-.191,3.8a4.338,4.338,0,0,0,.553.025,2.019,2.019,0,0,0,1.534-.566,2.258,2.258,0,0,0,.585-1.584c0-.764-.369-1.33-1.438-1.33a3.288,3.288,0,0,0-.585.045Z" transform="translate(-133.304 -137.102)" fill="url(#linear-gradient)"/>
          <path id="Path_6" data-name="Path 6" d="M138.235,140.1l-.68,1.356h-.56l2.22-4.29h.617l.6,4.29h-.541l-.179-1.356Zm1.438-.42-.165-1.24c-.026-.223-.057-.541-.076-.789h-.013c-.115.254-.223.521-.35.782l-.643,1.247Z" transform="translate(-133.304 -137.102)" fill="url(#linear-gradient)"/>
          <path id="Path_7" data-name="Path 7" d="M142.066,137.63h-1.254l.089-.459h3.042l-.089.459h-1.26l-.725,3.831h-.528Z" transform="translate(-133.304 -137.102)" fill="url(#linear-gradient)"/>
          <path id="Path_8" data-name="Path 8" d="M144.127,140.1l-.68,1.356h-.56l2.22-4.29h.618l.6,4.29h-.541L145.6,140.1Zm1.438-.42-.165-1.24c-.026-.223-.057-.541-.076-.789h-.013c-.114.254-.223.521-.35.782l-.643,1.247Z" transform="translate(-133.304 -137.102)" fill="url(#linear-gradient)"/>
          <path id="Path_9" data-name="Path 9" d="M148.836,137.223a6.368,6.368,0,0,1,1.069-.083,2.019,2.019,0,0,1,1.578.572,1.636,1.636,0,0,1,.4,1.165,2.686,2.686,0,0,1-.859,2.017,2.854,2.854,0,0,1-1.947.6,9.647,9.647,0,0,1-1.037-.052Zm-.191,3.8a4.353,4.353,0,0,0,.554.025,2.015,2.015,0,0,0,1.533-.566,2.255,2.255,0,0,0,.586-1.584c0-.764-.369-1.33-1.438-1.33a3.307,3.307,0,0,0-.586.045Z" transform="translate(-133.304 -137.102)" fill="url(#linear-gradient)"/>
          <path id="Path_10" data-name="Path 10" d="M152.953,137.236a4.188,4.188,0,0,1,.936-.1,1.516,1.516,0,0,1,1.024.312.915.915,0,0,1,.318.706,1.333,1.333,0,0,1-1.018,1.247l-.007.013c.306.1.446.42.478.859a7.268,7.268,0,0,0,.133,1.184h-.547a10.106,10.106,0,0,1-.1-1.038c-.031-.591-.248-.834-.674-.834h-.471l-.35,1.872h-.528Zm.153,1.946h.471a1,1,0,0,0,1.1-.954c0-.458-.343-.668-.827-.668a1.767,1.767,0,0,0-.445.045Z" transform="translate(-133.304 -137.102)" fill="url(#linear-gradient)"/>
          <path id="Path_11" data-name="Path 11" d="M156.81,137.171l-.815,4.29h-.528l.814-4.29Z" transform="translate(-133.304 -137.102)" fill="url(#linear-gradient)"/>
          <path id="Path_12" data-name="Path 12" d="M157.821,141.461l-.528-4.29h.534l.312,2.749c.051.44.076.688.083.968h.019a10.472,10.472,0,0,1,.471-1.037l1.361-2.68h.586l-2.259,4.29Z" transform="translate(-133.304 -137.102)" fill="url(#linear-gradient)"/>
          <path id="Path_13" data-name="Path 13" d="M162.854,139.444h-1.559L161,141.008h1.757l-.09.453h-2.284l.815-4.29h2.189l-.09.453h-1.654L161.384,139h1.559Z" transform="translate(-133.304 -137.102)" fill="url(#linear-gradient)"/>
          <path id="Path_14" data-name="Path 14" d="M163.375,141.461l.815-4.29h.579l.98,2.431a8.273,8.273,0,0,1,.375,1.2l.013-.005a10.273,10.273,0,0,1,.184-1.343l.433-2.279h.5l-.814,4.29h-.522l-.979-2.424a8.322,8.322,0,0,1-.4-1.235l-.019.006c-.045.4-.115.827-.223,1.412l-.426,2.241Z" transform="translate(-133.304 -137.102)" fill="url(#linear-gradient)"/>
          <path id="Path_15" data-name="Path 15" d="M169.892,137.171l-.815,4.29h-.528l.814-4.29Z" transform="translate(-133.304 -137.102)" fill="url(#linear-gradient)"/>
          <path id="Path_16" data-name="Path 16" d="M170.038,141.461l.814-4.29h.579l.98,2.431a8.273,8.273,0,0,1,.375,1.2l.013-.005a10.273,10.273,0,0,1,.184-1.343l.433-2.279h.5l-.815,4.29h-.522l-.979-2.424a8.322,8.322,0,0,1-.4-1.235l-.019.006c-.045.4-.115.827-.223,1.412l-.426,2.241Z" transform="translate(-133.304 -137.102)" fill="url(#linear-gradient)"/>
          <path id="Path_17" data-name="Path 17" d="M174.129,140.8a1.632,1.632,0,0,0,.91.275.844.844,0,0,0,.929-.8c0-.318-.179-.56-.63-.8-.547-.3-.853-.642-.853-1.1a1.325,1.325,0,0,1,1.451-1.26,1.613,1.613,0,0,1,.878.223l-.191.432a1.453,1.453,0,0,0-.744-.2.769.769,0,0,0-.846.7c0,.35.216.547.668.795a1.266,1.266,0,0,1,.814,1.152,1.377,1.377,0,0,1-1.546,1.324,1.792,1.792,0,0,1-1.031-.3Z" transform="translate(-133.304 -137.102)" fill="url(#linear-gradient)"/>
          <path id="Path_18" data-name="Path 18" d="M178.361,137.171l-.815,4.29h-.528l.814-4.29Z" transform="translate(-133.304 -137.102)" fill="url(#linear-gradient)"/>
          <path id="Path_19" data-name="Path 19" d="M181.663,141.276a3.41,3.41,0,0,1-1.209.229,1.778,1.778,0,0,1-1.4-.535,1.83,1.83,0,0,1-.432-1.247,2.5,2.5,0,0,1,2.6-2.6,2.232,2.232,0,0,1,1.011.2l-.178.445a2.069,2.069,0,0,0-2.227.337,2.23,2.23,0,0,0-.643,1.572,1.231,1.231,0,0,0,1.369,1.374,1.664,1.664,0,0,0,.649-.121l.248-1.278h-.872l.083-.434h1.387Z" transform="translate(-133.304 -137.102)" fill="url(#linear-gradient)"/>
          <path id="Path_20" data-name="Path 20" d="M183.813,137.171l-.343,1.808h1.972l.344-1.808h.528l-.815,4.29h-.528l.376-2.017H183.38L183,141.461h-.528l.814-4.29Z" transform="translate(-133.304 -137.102)" fill="url(#linear-gradient)"/>
          <path id="Path_21" data-name="Path 21" d="M187.93,137.63h-1.253l.089-.459h3.041l-.089.459h-1.26l-.725,3.831h-.528Z" transform="translate(-133.304 -137.102)" fill="url(#linear-gradient)"/>
          <path id="Path_22" data-name="Path 22" d="M189.6,140.8a1.635,1.635,0,0,0,.911.275.843.843,0,0,0,.928-.8c0-.318-.178-.56-.63-.8-.546-.3-.852-.642-.852-1.1a1.325,1.325,0,0,1,1.451-1.26,1.613,1.613,0,0,1,.878.223l-.191.432a1.461,1.461,0,0,0-.745-.2.769.769,0,0,0-.846.7c0,.35.217.547.668.795a1.265,1.265,0,0,1,.815,1.152,1.377,1.377,0,0,1-1.547,1.324,1.791,1.791,0,0,1-1.03-.3Z" transform="translate(-133.304 -137.102)" fill="url(#linear-gradient)"/>
          <path id="Path_23" data-name="Path 23" d="M198.938,141.321a2.842,2.842,0,0,1-1.113.2,1.625,1.625,0,0,1-1.737-1.775,2.686,2.686,0,0,1,.909-2.068,2.452,2.452,0,0,1,1.623-.573,1.817,1.817,0,0,1,.929.2l-.172.426a1.779,1.779,0,0,0-.846-.172,1.836,1.836,0,0,0-1.228.477,2.256,2.256,0,0,0-.656,1.629,1.227,1.227,0,0,0,1.3,1.4,2.172,2.172,0,0,0,.916-.185Z" transform="translate(-133.304 -137.102)" fill="url(#linear-gradient)"/>
          <path id="Path_24" data-name="Path 24" d="M200.841,137.171l-.484,2.54a3.1,3.1,0,0,0-.051.541.742.742,0,0,0,.795.827c.586,0,1.012-.395,1.2-1.362l.49-2.546h.528l-.49,2.565c-.248,1.279-.885,1.8-1.795,1.8a1.15,1.15,0,0,1-1.253-1.267,3.236,3.236,0,0,1,.057-.592l.477-2.5Z" transform="translate(-133.304 -137.102)" fill="url(#linear-gradient)"/>
          <path id="Path_25" data-name="Path 25" d="M204.926,137.63h-1.254l.089-.459H206.8l-.089.459h-1.26l-.726,3.831H204.2Z" transform="translate(-133.304 -137.102)" fill="url(#linear-gradient)"/>
          <path id="Path_26" data-name="Path 26" d="M208.215,137.63h-1.253l.089-.459h3.041l-.089.459h-1.259l-.726,3.831h-.528Z" transform="translate(-133.304 -137.102)" fill="url(#linear-gradient)"/>
          <path id="Path_27" data-name="Path 27" d="M211.1,137.171l-.814,4.29h-.529l.815-4.29Z" transform="translate(-133.304 -137.102)" fill="url(#linear-gradient)"/>
          <path id="Path_28" data-name="Path 28" d="M211.244,141.461l.815-4.29h.579l.98,2.431a8.273,8.273,0,0,1,.375,1.2l.013-.005a10.1,10.1,0,0,1,.184-1.343l.433-2.279h.5l-.814,4.29h-.522l-.98-2.424a8.425,8.425,0,0,1-.394-1.235l-.019.006c-.045.4-.115.827-.224,1.412l-.426,2.241Z" transform="translate(-133.304 -137.102)" fill="url(#linear-gradient)"/>
          <path id="Path_29" data-name="Path 29" d="M218.422,141.276a3.4,3.4,0,0,1-1.209.229,1.776,1.776,0,0,1-1.4-.535,1.831,1.831,0,0,1-.433-1.247,2.506,2.506,0,0,1,2.6-2.6,2.234,2.234,0,0,1,1.012.2l-.178.445a2.069,2.069,0,0,0-2.227.337,2.23,2.23,0,0,0-.643,1.572,1.23,1.23,0,0,0,1.368,1.374,1.67,1.67,0,0,0,.65-.121l.248-1.278h-.872l.083-.434h1.387Z" transform="translate(-133.304 -137.102)" fill="url(#linear-gradient)"/>
          <path id="Path_30" data-name="Path 30" d="M222.856,139.444H221.3l-.293,1.564h1.757l-.09.453h-2.284l.814-4.29h2.19l-.09.453h-1.655l-.26,1.374h1.559Z" transform="translate(-133.304 -137.102)" fill="url(#linear-gradient)"/>
          <path id="Path_31" data-name="Path 31" d="M224.186,137.223a6.38,6.38,0,0,1,1.07-.083,2.019,2.019,0,0,1,1.578.572,1.641,1.641,0,0,1,.4,1.165,2.686,2.686,0,0,1-.858,2.017,2.855,2.855,0,0,1-1.947.6,9.633,9.633,0,0,1-1.037-.052Zm-.19,3.8a4.345,4.345,0,0,0,.554.025,2.018,2.018,0,0,0,1.533-.566,2.258,2.258,0,0,0,.585-1.584c0-.764-.369-1.33-1.438-1.33a3.315,3.315,0,0,0-.586.045Z" transform="translate(-133.304 -137.102)" fill="url(#linear-gradient)"/>
          <path id="Path_32" data-name="Path 32" d="M230.651,141.276a3.4,3.4,0,0,1-1.209.229,1.775,1.775,0,0,1-1.4-.535,1.831,1.831,0,0,1-.433-1.247,2.5,2.5,0,0,1,2.6-2.6,2.237,2.237,0,0,1,1.012.2l-.178.445a2.07,2.07,0,0,0-2.228.337,2.233,2.233,0,0,0-.642,1.572,1.23,1.23,0,0,0,1.368,1.374,1.661,1.661,0,0,0,.649-.121l.248-1.278h-.872l.083-.434h1.387Z" transform="translate(-133.304 -137.102)" fill="url(#linear-gradient)"/>
          <path id="Path_33" data-name="Path 33" d="M233.929,139.444h-1.56l-.292,1.564h1.756l-.089.453H231.46l.814-4.29h2.189l-.089.453H232.72L232.459,139h1.559Z" transform="translate(-133.304 -137.102)" fill="url(#linear-gradient)"/>
          <path id="Path_34" data-name="Path 34" d="M235.678,140.8a1.629,1.629,0,0,0,.91.275.844.844,0,0,0,.929-.8c0-.318-.178-.56-.63-.8-.547-.3-.853-.642-.853-1.1a1.325,1.325,0,0,1,1.451-1.26,1.613,1.613,0,0,1,.878.223l-.19.432a1.464,1.464,0,0,0-.745-.2.769.769,0,0,0-.846.7c0,.35.216.547.668.795a1.266,1.266,0,0,1,.814,1.152,1.377,1.377,0,0,1-1.546,1.324,1.794,1.794,0,0,1-1.031-.3Z" transform="translate(-133.304 -137.102)" fill="url(#linear-gradient)"/>
          <path id="Path_35" data-name="Path 35" d="M242.537,138.858a3.033,3.033,0,0,1-.782,2.074,2.036,2.036,0,0,1-1.471.6,1.59,1.59,0,0,1-1.622-1.744,3.072,3.072,0,0,1,.814-2.106,2.109,2.109,0,0,1,1.439-.579A1.569,1.569,0,0,1,242.537,138.858Zm-2.673-.885a2.708,2.708,0,0,0-.648,1.77c0,.7.311,1.343,1.151,1.343a1.4,1.4,0,0,0,.981-.427,2.769,2.769,0,0,0,.635-1.776c0-.61-.2-1.336-1.138-1.336A1.392,1.392,0,0,0,239.864,137.973Z" transform="translate(-133.304 -137.102)" fill="url(#linear-gradient)"/>
          <path id="Path_36" data-name="Path 36" d="M243.619,137.171h.528L243.416,141h1.73l-.088.459H242.8Z" transform="translate(-133.304 -137.102)" fill="url(#linear-gradient)"/>
          <path id="Path_37" data-name="Path 37" d="M246.642,137.171l-.484,2.54a3.1,3.1,0,0,0-.051.541.742.742,0,0,0,.795.827c.586,0,1.012-.395,1.2-1.362l.49-2.546h.528l-.49,2.565c-.248,1.279-.885,1.8-1.795,1.8a1.15,1.15,0,0,1-1.253-1.267,3.156,3.156,0,0,1,.058-.592l.476-2.5Z" transform="translate(-133.304 -137.102)" fill="url(#linear-gradient)"/>
          <path id="Path_38" data-name="Path 38" d="M250.726,137.63h-1.253l.088-.459H252.6l-.088.459h-1.26l-.726,3.831H250Z" transform="translate(-133.304 -137.102)" fill="url(#linear-gradient)"/>
          <path id="Path_39" data-name="Path 39" d="M253.609,137.171l-.814,4.29h-.528l.814-4.29Z" transform="translate(-133.304 -137.102)" fill="url(#linear-gradient)"/>
          <path id="Path_40" data-name="Path 40" d="M257.738,138.858a3.033,3.033,0,0,1-.782,2.074,2.036,2.036,0,0,1-1.471.6,1.59,1.59,0,0,1-1.622-1.744,3.068,3.068,0,0,1,.815-2.106,2.1,2.1,0,0,1,1.438-.579A1.569,1.569,0,0,1,257.738,138.858Zm-2.673-.885a2.708,2.708,0,0,0-.648,1.77c0,.7.311,1.343,1.151,1.343a1.4,1.4,0,0,0,.981-.427,2.77,2.77,0,0,0,.636-1.776c0-.61-.2-1.336-1.139-1.336A1.392,1.392,0,0,0,255.065,137.973Z" transform="translate(-133.304 -137.102)" fill="url(#linear-gradient)"/>
          <path id="Path_41" data-name="Path 41" d="M258.006,141.461l.814-4.29h.579l.981,2.431a8.4,8.4,0,0,1,.375,1.2l.013-.005a10.1,10.1,0,0,1,.184-1.343l.433-2.279h.5l-.815,4.29h-.521l-.98-2.424a8.3,8.3,0,0,1-.394-1.235l-.02.006c-.045.4-.114.827-.222,1.412l-.427,2.241Z" transform="translate(-133.304 -137.102)" fill="url(#linear-gradient)"/>
          <path id="Path_42" data-name="Path 42" d="M262.1,140.8a1.629,1.629,0,0,0,.91.275.843.843,0,0,0,.928-.8c0-.318-.177-.56-.629-.8-.547-.3-.853-.642-.853-1.1a1.325,1.325,0,0,1,1.451-1.26,1.613,1.613,0,0,1,.878.223l-.19.432a1.464,1.464,0,0,0-.745-.2.769.769,0,0,0-.846.7c0,.35.216.547.668.795a1.266,1.266,0,0,1,.814,1.152,1.377,1.377,0,0,1-1.547,1.324,1.793,1.793,0,0,1-1.03-.3Z" transform="translate(-133.304 -137.102)" fill="url(#linear-gradient)"/>
        </g>
      </g>
      <g id="Group_3" data-name="Group 3" transform="translate(65.059 38.118)" style="mix-blend-mode: multiply;isolation: isolate">
        <path id="Path_43" data-name="Path 43" d="M193.821,142.269l1.083-5.717h-.377l-1.083,5.717Z" transform="translate(-193.445 -136.552)" fill="url(#linear-gradient)"/>
      </g>
    </g>
  </g>
</svg>
