<svg xmlns="http://www.w3.org/2000/svg" xmlns:xlink="http://www.w3.org/1999/xlink" width="301.809" height="84.802" viewBox="0 0 301.809 84.802"><defs><linearGradient id="a" x1="0.857" y1="0.988" x2="0.275" y2="0.011" gradientUnits="objectBoundingBox"><stop offset="0" stop-color="#0a2647"/><stop offset="0.303" stop-color="#0069ab"/><stop offset="1" stop-color="#00a8e5"/></linearGradient><linearGradient id="b" x1="0.848" y1="0.961" x2="0.252" y2="0.021" gradientUnits="objectBoundingBox"><stop offset="0" stop-color="#052b2b"/><stop offset="0.327" stop-color="#0c504f"/><stop offset="1" stop-color="#159f9c"/></linearGradient><linearGradient id="c" x1="0.597" y1="1.01" x2="0.447" y2="0.025" gradientUnits="objectBoundingBox"><stop offset="0" stop-color="#11422a"/><stop offset="0.394" stop-color="#134d32"/><stop offset="0.604" stop-color="#326c35"/><stop offset="1" stop-color="#76b03e"/></linearGradient><linearGradient id="d" x1="0" y1="0.5" x2="1" y2="0.5" xlink:href="#a"/></defs><g transform="translate(-68.703 -43.411)" opacity="0.68" style="isolation:isolate"><path d="M79.9,91.306c-8.8-18.293-3.361-37.278,12.153-42.4,12.364-4.084,27.39,1.875,37.44,13.72-9.805-16.05-27.811-22.511-42.662-17.607C69.86,50.623,63.71,70.975,73.1,90.48c8.958,18.614,28.827,29.712,45.374,25.814C104.052,117.729,87.7,107.511,79.9,91.306Z" fill="url(#a)" style="mix-blend-mode:multiply;isolation:isolate"/><path d="M90.271,109.141c-5.639-18.96.863-38.166,12.065-41.612,9.806-3.016,20.315,2.707,27.271,15.212C123.08,66,109.765,58.521,98.2,62.7c-13.217,4.775-19.061,25.034-13.05,45.247,5.739,19.292,20.2,31.557,33,28.483C107.107,137.123,95.265,125.935,90.271,109.141Z" transform="translate(0 -18.151)" fill="url(#b)" style="mix-blend-mode:multiply;isolation:isolate"/><path d="M98.759,110.515c-3.685-14.808,1.3-28.193,10.737-31.045,7.522-2.276,15.147,3.132,20.065,13.029-4.444-13.137-14.421-19.437-23.454-16.7C95.785,78.915,90.6,94.239,94.53,110.024c3.75,15.066,14.446,25.091,24.387,23.262C110.41,133.36,102.022,123.626,98.759,110.515Z" transform="translate(0 -21.096)" fill="url(#c)" style="mix-blend-mode:multiply;isolation:isolate"/><g transform="translate(114.722 79.717)"><path d="M167.584,108.583c-8,0-13.539,7.6-13.539,16.36,0,6.163,3.661,10.675,9.587,10.675,8,0,13.541-7.542,13.541-16.358C177.173,113.576,173.9,108.583,167.584,108.583ZM164.4,130.837c-2.89,0-4.577-2.5-4.577-6.055,0-4.832,2.6-11.421,7.084-11.421,3.372,0,4.481,3.295,4.481,5.949C171.391,124.465,168.6,130.837,164.4,130.837Zm-14.381,2.985a19.229,19.229,0,0,1-8.51,1.652c-8.461,0-13.876-5.756-13.876-15.083,0-7.514,2.9-13.854,7.638-17.692a18.39,18.39,0,0,1,12.137-4.265,13.959,13.959,0,0,1,7.107,1.6l-1.644,5.011a12.939,12.939,0,0,0-6.14-1.28,11.727,11.727,0,0,0-8.268,3.357c-2.9,2.771-4.739,7.3-4.739,12.469,0,6.076,2.8,10.554,9.236,10.554a15.4,15.4,0,0,0,6.527-1.332Zm46.862-25.24c-3.278,0-6.265,1.754-8.432,5.2h-.1l.529-4.618h-5.011c-.289,2.231-.625,4.938-1.2,8.019l-3.036,17.846h5.589l2.024-11.95c1.012-6.056,4.288-9.455,6.842-9.455,2.218,0,2.939,1.54,2.939,3.717a21.533,21.533,0,0,1-.287,3.082l-2.506,14.606h5.637l2.554-15.083a26.582,26.582,0,0,0,.433-4.25C202.858,110.814,200.256,108.583,196.884,108.583Zm26.648.586-5.83,13.012c-1.3,3.079-1.976,4.941-2.555,6.586H215c-.145-1.7-.386-3.665-.674-6.746l-1.494-12.852h-5.783l4,25.865h5.638l13.058-25.865Zm18.94-.586c-8.094,0-13.3,8.5-13.3,16.307,0,6.319,3.133,10.728,9.638,10.728a17.439,17.439,0,0,0,8.29-2.071l-.534-4.516a12.816,12.816,0,0,1-6.455,1.7,5.06,5.06,0,0,1-4.818-2.656,7.8,7.8,0,0,1-.627-3.665c9.059.212,15.371-1.914,15.371-8.551C250.037,111.5,247.1,108.583,242.472,108.583Zm-7.227,11.208c.674-3.134,2.987-6.586,6.505-6.586,1.783,0,2.986,1.009,2.986,2.655C244.736,118.993,241.027,119.841,235.245,119.79Zm32.284-11.208c-3.18,0-5.732,2.551-7.322,6h-.145c.241-1.86.385-3.666.53-5.417h-4.866c-.242,2.284-.58,6.266-1.206,9.933l-2.746,15.932h5.589l1.781-10.411c.918-5.521,3.471-9.987,7.471-9.987a6.247,6.247,0,0,1,1.06.055l1.107-6.054C268.4,108.638,267.963,108.583,267.529,108.583Zm16.578,0c-9.732,0-15.371,8.552-15.323,17.211,0,4.884,2.651,9.136,7.325,9.136,2.988,0,5.446-1.488,7.371-4.57h.1L283,133.28c-1.154,6-3.951,7.915-7.612,7.915a12.529,12.529,0,0,1-6.167-1.541l-1.4,4.727a13.928,13.928,0,0,0,7.373,1.755,12.69,12.69,0,0,0,8.673-2.868c2.651-2.445,3.952-6.481,4.819-11.527l3.566-21.35A19.087,19.087,0,0,0,284.107,108.583Zm.723,13.173c-.818,4.675-3.613,8.34-6.408,8.34s-3.759-2.552-3.759-5.259c0-5.576,3.469-11.418,8.386-11.418a7.525,7.525,0,0,1,3.131.636Zm21.782.158c-1.108,2.816-1.686,4.567-2.263,6.163h-.1c-.193-1.753-.482-3.665-.916-6.48L301.5,109.169h-5.878l4.674,23.845a1.632,1.632,0,0,1-.1,1.171,15.092,15.092,0,0,1-4.145,5.152,14.473,14.473,0,0,1-4.144,2.283l1.3,5.311a15.488,15.488,0,0,0,7.226-4.46c3.132-3.348,5.734-7.966,8.577-14.237l8.579-19.065h-5.977Zm26.746,13.12h5.589l4.482-25.865H337.84Zm-6.121-21.086h5.314l3.2-4.778h-7.643l1.108-6.639-5.782,1.806-3.71,21.137a26.609,26.609,0,0,0-.483,4.783c0,2.975,1.686,5.31,5.541,5.31a10.249,10.249,0,0,0,3.662-.531l.53-4.832a11.106,11.106,0,0,1-1.927.158c-1.493,0-2.072-.9-2.072-2.337a20.028,20.028,0,0,1,.434-3.664Zm33.347-.319a7.743,7.743,0,0,1,3.566.8l1.446-4.836a12.362,12.362,0,0,0-4.819-.955c-8.672,0-14.888,7.594-14.888,16.622,0,6.164,3.613,10.305,9.492,10.305a14.777,14.777,0,0,0,6.744-1.486l-.239-4.728a10.77,10.77,0,0,1-4.962,1.221c-3.133,0-5.157-2.177-5.157-6.054C351.767,119.1,355.188,113.629,360.584,113.629Zm17.06-.424a8.844,8.844,0,0,1,4.384,1.169l1.4-4.464a10.458,10.458,0,0,0-5.492-1.327c-5.541,0-9.494,3.506-9.494,8.5,0,2.974,1.928,5.153,4.625,6.744,2.314,1.329,3.086,2.393,3.086,3.987,0,1.75-1.349,3.184-3.616,3.184a11.946,11.946,0,0,1-5.638-1.7l-1.444,4.409a11.7,11.7,0,0,0,6.553,1.911c5.638.051,9.974-3.133,9.974-8.869,0-3.295-2.265-5.418-4.866-6.959-2.023-1.117-3.036-2.125-3.036-3.611C374.078,114.428,375.524,113.2,377.644,113.2Z" transform="translate(-127.636 -98.434)" fill="url(#d)" style="mix-blend-mode:multiply;isolation:isolate"/><g transform="translate(5.668 42.622)"><path d="M134.1,137.232a5.78,5.78,0,0,1,1.068-.091,1.773,1.773,0,0,1,1.979,1.915,3.115,3.115,0,0,1-.858,2.223,2.684,2.684,0,0,1-1.948.66,8.772,8.772,0,0,1-1.037-.057Zm-.191,4.194a3.938,3.938,0,0,0,.553.028,1.919,1.919,0,0,0,1.534-.624,2.641,2.641,0,0,0,.585-1.746,1.291,1.291,0,0,0-1.438-1.466,2.991,2.991,0,0,0-.585.05Z" transform="translate(-133.304 -137.098)" fill="#47484a"/><path d="M138.235,140.405l-.68,1.495h-.56l2.22-4.729h.617l.6,4.729h-.541l-.179-1.495Zm1.438-.463-.165-1.367c-.026-.246-.057-.6-.076-.87h-.013c-.115.28-.223.574-.35.862l-.643,1.375Z" transform="translate(-133.304 -137.095)" fill="#47484a"/><path d="M142.066,137.677h-1.254l.089-.506h3.042l-.089.506h-1.26l-.725,4.223h-.528Z" transform="translate(-133.304 -137.095)" fill="#47484a"/><path d="M144.127,140.405l-.68,1.495h-.56l2.22-4.729h.618l.6,4.729h-.541l-.178-1.495Zm1.438-.463-.165-1.367c-.026-.246-.057-.6-.076-.87h-.013c-.114.28-.223.574-.35.862l-.643,1.375Z" transform="translate(-133.304 -137.095)" fill="#47484a"/><path d="M148.836,137.232a5.791,5.791,0,0,1,1.069-.091,1.775,1.775,0,0,1,1.979,1.915,3.112,3.112,0,0,1-.859,2.223,2.68,2.68,0,0,1-1.947.66,8.759,8.759,0,0,1-1.037-.057Zm-.191,4.194a3.951,3.951,0,0,0,.554.028,1.915,1.915,0,0,0,1.533-.624,2.637,2.637,0,0,0,.586-1.746,1.291,1.291,0,0,0-1.438-1.466,3.008,3.008,0,0,0-.586.05Z" transform="translate(-133.304 -137.098)" fill="#47484a"/><path d="M152.953,137.246a3.816,3.816,0,0,1,.936-.106,1.424,1.424,0,0,1,1.024.344,1.056,1.056,0,0,1,.318.778,1.442,1.442,0,0,1-1.018,1.375l-.007.014c.306.112.446.463.478.947a8.8,8.8,0,0,0,.133,1.305h-.547c-.025-.1-.07-.6-.1-1.144-.031-.651-.248-.919-.674-.919h-.471l-.35,2.063h-.528Zm.153,2.145h.471a1.047,1.047,0,0,0,1.1-1.052c0-.5-.343-.736-.827-.736a1.61,1.61,0,0,0-.445.05Z" transform="translate(-133.304 -137.098)" fill="#47484a"/><path d="M156.81,137.171l-.815,4.729h-.528l.814-4.729Z" transform="translate(-133.304 -137.095)" fill="#47484a"/><path d="M157.821,141.9l-.528-4.729h.534l.312,3.03c.051.485.076.758.083,1.067h.019a12.157,12.157,0,0,1,.471-1.143l1.361-2.954h.586L158.4,141.9Z" transform="translate(-133.304 -137.095)" fill="#47484a"/><path d="M162.854,139.676h-1.559L161,141.4h1.757l-.09.5h-2.284l.815-4.729h2.189l-.09.5h-1.654l-.261,1.515h1.559Z" transform="translate(-133.304 -137.095)" fill="#47484a"/><path d="M163.375,141.9l.815-4.729h.579l.98,2.68a9.815,9.815,0,0,1,.375,1.318l.013-.006a12.42,12.42,0,0,1,.184-1.48l.433-2.512h.5l-.814,4.729h-.522l-.979-2.672a9.864,9.864,0,0,1-.4-1.361l-.019.007c-.045.443-.115.912-.223,1.556l-.426,2.47Z" transform="translate(-133.304 -137.095)" fill="#47484a"/><path d="M169.892,137.171l-.815,4.729h-.528l.814-4.729Z" transform="translate(-133.304 -137.095)" fill="#47484a"/><path d="M170.038,141.9l.814-4.729h.579l.98,2.68a9.815,9.815,0,0,1,.375,1.318l.013-.006a12.42,12.42,0,0,1,.184-1.48l.433-2.512h.5L173.1,141.9h-.522l-.979-2.672a9.864,9.864,0,0,1-.4-1.361l-.019.007c-.045.443-.115.912-.223,1.556l-.426,2.47Z" transform="translate(-133.304 -137.095)" fill="#47484a"/><path d="M174.129,141.175a1.527,1.527,0,0,0,.91.3.876.876,0,0,0,.929-.884c0-.351-.179-.617-.63-.884a1.432,1.432,0,0,1-.853-1.214,1.378,1.378,0,0,1,1.451-1.389,1.5,1.5,0,0,1,.878.246l-.191.476a1.356,1.356,0,0,0-.744-.224.8.8,0,0,0-.846.772c0,.386.216.6.668.876a1.4,1.4,0,0,1,.814,1.27,1.433,1.433,0,0,1-1.546,1.459,1.677,1.677,0,0,1-1.031-.331Z" transform="translate(-133.304 -137.101)" fill="#47484a"/><path d="M178.361,137.171l-.815,4.729h-.528l.814-4.729Z" transform="translate(-133.304 -137.095)" fill="#47484a"/><path d="M181.663,141.7a3.137,3.137,0,0,1-1.209.252,1.694,1.694,0,0,1-1.4-.59,2.151,2.151,0,0,1-.432-1.375,3.11,3.11,0,0,1,.833-2.16,2.544,2.544,0,0,1,1.769-.7,2.059,2.059,0,0,1,1.011.218l-.178.491a1.765,1.765,0,0,0-.9-.2,1.817,1.817,0,0,0-1.33.574,2.592,2.592,0,0,0-.643,1.733c0,.912.414,1.515,1.369,1.515a1.531,1.531,0,0,0,.649-.133l.248-1.409h-.872l.083-.478h1.387Z" transform="translate(-133.304 -137.099)" fill="#47484a"/><path d="M183.813,137.171l-.343,1.993h1.972l.344-1.993h.528L185.5,141.9h-.528l.376-2.223H183.38L183,141.9h-.528l.814-4.729Z" transform="translate(-133.304 -137.095)" fill="#47484a"/><path d="M187.93,137.677h-1.253l.089-.506h3.041l-.089.506h-1.26l-.725,4.223h-.528Z" transform="translate(-133.304 -137.095)" fill="#47484a"/><path d="M189.6,141.175a1.531,1.531,0,0,0,.911.3.875.875,0,0,0,.928-.884c0-.351-.178-.617-.63-.884a1.433,1.433,0,0,1-.852-1.214,1.378,1.378,0,0,1,1.451-1.389,1.5,1.5,0,0,1,.878.246l-.191.476a1.362,1.362,0,0,0-.745-.224.8.8,0,0,0-.846.772c0,.386.217.6.668.876a1.4,1.4,0,0,1,.815,1.27,1.434,1.434,0,0,1-1.547,1.459,1.676,1.676,0,0,1-1.03-.331Z" transform="translate(-133.304 -137.101)" fill="#47484a"/><path d="M198.938,141.752a2.613,2.613,0,0,1-1.113.224,1.717,1.717,0,0,1-1.737-1.957A3.1,3.1,0,0,1,197,137.74a2.317,2.317,0,0,1,1.623-.632,1.683,1.683,0,0,1,.929.225l-.172.47a1.643,1.643,0,0,0-.846-.19,1.745,1.745,0,0,0-1.228.526,2.623,2.623,0,0,0-.656,1.8c0,.85.35,1.544,1.3,1.544a2,2,0,0,0,.916-.2Z" transform="translate(-133.304 -137.101)" fill="#47484a"/><path d="M200.841,137.171l-.484,2.8a3.751,3.751,0,0,0-.051.6c0,.6.318.912.795.912.586,0,1.012-.435,1.2-1.5l.49-2.806h.528l-.49,2.827c-.248,1.41-.885,1.979-1.795,1.979-.706,0-1.253-.421-1.253-1.4a3.921,3.921,0,0,1,.057-.653l.477-2.757Z" transform="translate(-133.304 -137.095)" fill="#47484a"/><path d="M204.926,137.677h-1.254l.089-.506H206.8l-.089.506h-1.26l-.726,4.223H204.2Z" transform="translate(-133.304 -137.095)" fill="#47484a"/><path d="M208.215,137.677h-1.253l.089-.506h3.041l-.089.506h-1.259l-.726,4.223h-.528Z" transform="translate(-133.304 -137.095)" fill="#47484a"/><path d="M211.1,137.171l-.814,4.729h-.529l.815-4.729Z" transform="translate(-133.304 -137.095)" fill="#47484a"/><path d="M211.244,141.9l.815-4.729h.579l.98,2.68a9.815,9.815,0,0,1,.375,1.318l.013-.006a12.217,12.217,0,0,1,.184-1.48l.433-2.512h.5L214.3,141.9h-.522l-.98-2.672a9.988,9.988,0,0,1-.394-1.361l-.019.007c-.045.443-.115.912-.224,1.556l-.426,2.47Z" transform="translate(-133.304 -137.095)" fill="#47484a"/><path d="M218.422,141.7a3.128,3.128,0,0,1-1.209.252,1.693,1.693,0,0,1-1.4-.59,2.152,2.152,0,0,1-.433-1.375,3.106,3.106,0,0,1,.834-2.16,2.546,2.546,0,0,1,1.768-.7,2.061,2.061,0,0,1,1.012.218l-.178.491a1.762,1.762,0,0,0-.9-.2,1.817,1.817,0,0,0-1.33.574,2.592,2.592,0,0,0-.643,1.733c0,.912.414,1.515,1.368,1.515a1.536,1.536,0,0,0,.65-.133l.248-1.409h-.872l.083-.478h1.387Z" transform="translate(-133.304 -137.099)" fill="#47484a"/><path d="M222.856,139.676H221.3l-.293,1.724h1.757l-.09.5h-2.284l.814-4.729h2.19l-.09.5h-1.655l-.26,1.515h1.559Z" transform="translate(-133.304 -137.095)" fill="#47484a"/><path d="M224.186,137.232a5.8,5.8,0,0,1,1.07-.091,1.773,1.773,0,0,1,1.978,1.915,3.111,3.111,0,0,1-.858,2.223,2.682,2.682,0,0,1-1.947.66,8.747,8.747,0,0,1-1.037-.057Zm-.19,4.194a3.945,3.945,0,0,0,.554.028,1.918,1.918,0,0,0,1.533-.624,2.641,2.641,0,0,0,.585-1.746,1.291,1.291,0,0,0-1.438-1.466,3.015,3.015,0,0,0-.586.05Z" transform="translate(-133.304 -137.098)" fill="#47484a"/><path d="M230.651,141.7a3.128,3.128,0,0,1-1.209.252,1.692,1.692,0,0,1-1.4-.59,2.152,2.152,0,0,1-.433-1.375,3.11,3.11,0,0,1,.833-2.16,2.546,2.546,0,0,1,1.769-.7,2.064,2.064,0,0,1,1.012.218l-.178.491a1.769,1.769,0,0,0-.9-.2,1.82,1.82,0,0,0-1.33.574,2.6,2.6,0,0,0-.642,1.733c0,.912.414,1.515,1.368,1.515a1.527,1.527,0,0,0,.649-.133l.248-1.409h-.872l.083-.478h1.387Z" transform="translate(-133.304 -137.099)" fill="#47484a"/><path d="M233.929,139.676h-1.56l-.292,1.724h1.756l-.089.5H231.46l.814-4.729h2.189l-.089.5H232.72l-.261,1.515h1.559Z" transform="translate(-133.304 -137.095)" fill="#47484a"/><path d="M235.678,141.175a1.525,1.525,0,0,0,.91.3.876.876,0,0,0,.929-.884c0-.351-.178-.617-.63-.884a1.432,1.432,0,0,1-.853-1.214,1.378,1.378,0,0,1,1.451-1.389,1.5,1.5,0,0,1,.878.246l-.19.476a1.365,1.365,0,0,0-.745-.224.8.8,0,0,0-.846.772c0,.386.216.6.668.876a1.4,1.4,0,0,1,.814,1.27,1.433,1.433,0,0,1-1.546,1.459,1.679,1.679,0,0,1-1.031-.331Z" transform="translate(-133.304 -137.101)" fill="#47484a"/><path d="M242.537,139.038a3.545,3.545,0,0,1-.782,2.286,1.945,1.945,0,0,1-1.471.66c-1.106,0-1.622-.919-1.622-1.922a3.585,3.585,0,0,1,.814-2.321,2.01,2.01,0,0,1,1.439-.638C242.072,137.1,242.537,138.028,242.537,139.038Zm-2.673-.975a3.172,3.172,0,0,0-.648,1.951c0,.772.311,1.48,1.151,1.48a1.344,1.344,0,0,0,.981-.471,3.248,3.248,0,0,0,.635-1.958c0-.672-.2-1.473-1.138-1.473A1.335,1.335,0,0,0,239.864,138.062Z" transform="translate(-133.304 -137.102)" fill="#47484a"/><path d="M243.619,137.171h.528l-.731,4.223h1.73l-.088.506H242.8Z" transform="translate(-133.304 -137.095)" fill="#47484a"/><path d="M246.642,137.171l-.484,2.8a3.751,3.751,0,0,0-.051.6c0,.6.318.912.795.912.586,0,1.012-.435,1.2-1.5l.49-2.806h.528l-.49,2.827c-.248,1.41-.885,1.979-1.795,1.979-.706,0-1.253-.421-1.253-1.4a3.824,3.824,0,0,1,.058-.653l.476-2.757Z" transform="translate(-133.304 -137.095)" fill="#47484a"/><path d="M250.726,137.677h-1.253l.088-.506H252.6l-.088.506h-1.26l-.726,4.223H250Z" transform="translate(-133.304 -137.095)" fill="#47484a"/><path d="M253.609,137.171l-.814,4.729h-.528l.814-4.729Z" transform="translate(-133.304 -137.095)" fill="#47484a"/><path d="M257.738,139.038a3.545,3.545,0,0,1-.782,2.286,1.945,1.945,0,0,1-1.471.66c-1.106,0-1.622-.919-1.622-1.922a3.58,3.58,0,0,1,.815-2.321,2.006,2.006,0,0,1,1.438-.638C257.273,137.1,257.738,138.028,257.738,139.038Zm-2.673-.975a3.172,3.172,0,0,0-.648,1.951c0,.772.311,1.48,1.151,1.48a1.343,1.343,0,0,0,.981-.471,3.249,3.249,0,0,0,.636-1.958c0-.672-.2-1.473-1.139-1.473A1.335,1.335,0,0,0,255.065,138.062Z" transform="translate(-133.304 -137.102)" fill="#47484a"/><path d="M258.006,141.9l.814-4.729h.579l.981,2.68a9.972,9.972,0,0,1,.375,1.318l.013-.006a12.216,12.216,0,0,1,.184-1.48l.433-2.512h.5l-.815,4.729h-.521l-.98-2.672a9.843,9.843,0,0,1-.394-1.361l-.02.007c-.045.443-.114.912-.222,1.556l-.427,2.47Z" transform="translate(-133.304 -137.095)" fill="#47484a"/><path d="M262.1,141.175a1.525,1.525,0,0,0,.91.3.875.875,0,0,0,.928-.884c0-.351-.177-.617-.629-.884a1.432,1.432,0,0,1-.853-1.214,1.378,1.378,0,0,1,1.451-1.389,1.5,1.5,0,0,1,.878.246l-.19.476a1.365,1.365,0,0,0-.745-.224.8.8,0,0,0-.846.772c0,.386.216.6.668.876a1.4,1.4,0,0,1,.814,1.27,1.434,1.434,0,0,1-1.547,1.459,1.678,1.678,0,0,1-1.03-.331Z" transform="translate(-133.304 -137.101)" fill="#47484a"/></g><g transform="translate(65.809 42.016)" style="mix-blend-mode:multiply;isolation:isolate"><path d="M193.821,142.854l1.083-6.3h-.377l-1.083,6.3Z" transform="translate(-193.445 -136.552)" fill="#005f90"/></g></g></g></svg>